<?xml version="1.0" standalone="no"?><!DOCTYPE svg PUBLIC "-//W3C//DTD SVG 1.1//EN" "http://www.w3.org/Graphics/SVG/1.1/DTD/svg11.dtd"><svg t="1659756756366" class="icon" viewBox="0 0 1024 1024" version="1.1" xmlns="http://www.w3.org/2000/svg" p-id="22402" xmlns:xlink="http://www.w3.org/1999/xlink" width="200" height="200"><defs><style type="text/css"></style></defs><path d="M673 966.3H144.7c-30 0-54.4-26.1-54.4-58.2v-195c0-77.8 58.3-141.1 129.9-141.1h384c67.9 0 123.1 60 123.1 133.8v202.3c0 32.1-24.3 58.2-54.3 58.2zM220.2 606.7c-52.5 0-95.3 47.7-95.3 106.4V908c0 13 8.8 23.6 19.7 23.6H673c10.9 0 19.7-10.6 19.7-23.6V705.8c0-54.6-39.7-99.1-88.5-99.1h-384z" fill="#2c2c2c" p-id="22403"></path><path d="M506.1 606.7H311.6c-9.6 0-17.3-7.8-17.3-17.3v-97.9c0-7.3 4.5-13.7 11.3-16.3 6.9-2.5 14.4-0.5 19.2 5 4 4.7 14 9.4 27.4 9.4h113.5c8.8 0 17.5-2.2 23.8-6.1 1-0.7 2.4-1.9 3.5-3.2 4.7-5.6 12.4-7.6 19.2-5.1 6.8 2.5 11.4 9 11.4 16.3v97.9c-0.1 9.6-7.9 17.3-17.5 17.3zM328.9 572h159.9v-51c-7.4 2.1-15.3 3.2-23.2 3.2H352.1c-8.1 0-16-1.1-23.2-3.1V572z" fill="#2c2c2c" p-id="22404"></path><path d="M311.7 511.5c-9.4 0-17-7.4-17.3-16.7-0.1-0.9-0.2-2.9-0.2-3.4 0-9.6 7.8-17.6 17.3-17.6 9.6 0 17.3 7.5 17.3 17.1 0.1 0.6 0.2 2.7 0.2 3.3 0.1 9.6-7.7 17.3-17.3 17.3zM505.7 511.4c-1.2 0-2.3-0.1-3.5-0.3-9.4-1.9-15.4-10.9-13.5-20.3 0-9.6 7.8-17.3 17.4-17.3 9.6 0 17.3 7.8 17.3 17.4v0.5c0 2.8-0.4 4.8-0.7 6-1.6 8.2-8.9 14-17 14z" fill="#2c2c2c" p-id="22405"></path><path d="M465.6 524.2H352.1c-22.1 0-42.1-8-53.7-21.4-4.9-5.6-8.3-12.3-9.6-19.4-0.4-2.2-0.6-4.6-0.6-6.6 0-2.9 0.4-5.6 1.1-8.1 2.3-10.8 9.5-20.5 20.3-27.6 12-7.6 27-11.7 42.5-11.7h113.5c2.8 0 5.5 0.1 8.1 0.5 28.6 2.5 50.6 18.3 55 39.6 0.5 2.7 0.7 5.1 0.7 6.8v0.6c0 0.4-0.1 2.5-0.1 2.9-0.1 0.6-0.2 3.1-0.3 3.8-1.3 7-4.7 13.8-9.8 19.5-3 3.6-6.9 7-11.2 9.8-12.4 7.3-27.2 11.3-42.4 11.3z m-142.7-47.3c0.2 1 0.6 1.9 1.6 3 4.2 4.9 14.2 9.6 27.5 9.6h113.5c8.8 0 17.5-2.2 23.8-6.1 1-0.7 2.4-1.9 3.5-3.2 0.8-1 1.4-1.8 1.7-2.5 0-0.2 0-0.4 0.1-0.7v-0.5c-0.9-3.8-9.1-11-24.5-12.2-0.7-0.1-1.4-0.1-2-0.3-0.7-0.1-1.6 0-2.5 0H352.1c-8.9 0-17.6 2.2-23.8 6.1-3.4 2.2-4.9 4.6-5.2 5.9 0 0.4-0.1 0.6-0.2 0.9z m188.9 3.4h0.2-0.2z m-189.3-1.8z" fill="#2c2c2c" p-id="22406"></path><path d="M418.4 524.2h-7.9c-5.8 0-11.2-2.9-14.4-7.7-3.2-4.8-3.8-10.9-1.6-16.2 9-21.9 18-43.7 25-60.3 7.4-17.4 11.3-26.3 13.2-29.8 111.1-222.1 229.2-323.1 421-359.9 7.1-1.3 14.2 1.8 18 7.9 3.8 6.1 3.4 13.9-0.9 19.6L780.2 198c-4.5 5.9-6 13.4-4.1 20.4l12.3 45.7c4.5 16.2 1.6 33.6-7.7 47.6-9.4 14.1-24.5 23.4-41.3 25.5l-62.7 7.9c-9.6 1.2-17.4 8.1-19.9 17.3 4.1 24.3-7.9 48.8-29.5 59.4-11 5.3-23.2 7.1-35.6 5l-56.1-10.1c-7.4-1.3-15.1 1.3-20.1 6.9l-83.9 94.8c-3.5 3.7-8.2 5.8-13.2 5.8zM814.5 94.7c-155 41.4-253.2 135.6-351.1 331.3-0.6 1.2-2 4.3-3.7 8l29.6-33.5c13-14.6 33-21.4 52.2-18l56 10.1c4.9 0.8 10.1 0.1 14.4-2 8.3-4.1 12.6-14.2 10.2-24.1-0.5-2.2-0.6-4.5-0.3-6.7 3.9-25.8 24.7-46 50.5-49.1l62.6-7.9c6.9-0.9 13-4.6 16.8-10.4 3.8-5.7 4.9-12.5 3.1-19.2v-0.1l-12.3-45.7c-4.7-17.2-1-36.1 9.9-50.4l62.1-82.3z" fill="#2c2c2c" p-id="22407"></path></svg>